<?xml version="1.0" encoding="UTF-8"?>
<!-- Generator: Adobe Illustrator 12.0.1, SVG Export Plug-In . SVG Version: 6.00 Build 51448)  -->
<!DOCTYPE svg PUBLIC "-//W3C//DTD SVG 1.1//EN" "http://www.w3.org/Graphics/SVG/1.1/DTD/svg11.dtd" [
]>
<svg version="1.1" id="Layer_1" xmlns="http://www.w3.org/2000/svg" xmlns:xlink="http://www.w3.org/1999/xlink" width="750" height="422" viewBox="0 0 336.915 189.631" overflow="visible" enable-background="new 0 0 336.915 189.631" xml:space="preserve">
<symbol id="New_Symbol_" viewBox="-10.85 -12.627 21.7 25.254">
	<g id="XMLID_9_">
		<g>
			<linearGradient id="XMLID_32_" gradientUnits="userSpaceOnUse" x1="0" y1="-3.6328" x2="-9.463686e-07" y2="18.0176">
				<stop offset="0" style="stop-color:#FFFFFF"/>
				<stop offset="1" style="stop-color:#000000"/>
			</linearGradient>
			<polygon fill="url(#XMLID_32_)" points="10.83,1.736 0.04,-9.044 -10.83,1.826 -0.04,12.606    "/>
		</g>
		<g>
			<polygon fill="none" stroke="#000000" stroke-width="0.0283" points="10.83,1.736 0.04,-9.044 -10.83,1.826 -0.04,12.606    "/>
		</g>
	</g>
	<linearGradient id="XMLID_33_" gradientUnits="userSpaceOnUse" x1="-0.0303" y1="-5.3936" x2="10.7695" y2="-5.3936">
		<stop offset="0" style="stop-color:#FFFFFF"/>
		<stop offset="1" style="stop-color:#000000"/>
	</linearGradient>
	<polygon fill="url(#XMLID_33_)" stroke="#000000" stroke-width="0.0283" points="-0.03,-12.594 -0.03,-8.993 10.77,1.807    10.77,-1.793  "/>
	<linearGradient id="XMLID_34_" gradientUnits="userSpaceOnUse" x1="-10.8301" y1="-5.3936" x2="-0.0303" y2="-5.3936">
		<stop offset="0" style="stop-color:#000000"/>
		<stop offset="0.3597" style="stop-color:#020202"/>
		<stop offset="0.4949" style="stop-color:#090909"/>
		<stop offset="0.5922" style="stop-color:#151515"/>
		<stop offset="0.6714" style="stop-color:#262626"/>
		<stop offset="0.7395" style="stop-color:#3C3C3C"/>
		<stop offset="0.8001" style="stop-color:#585858"/>
		<stop offset="0.855" style="stop-color:#787878"/>
		<stop offset="0.9056" style="stop-color:#9F9F9F"/>
		<stop offset="0.9527" style="stop-color:#CACACA"/>
		<stop offset="0.9947" style="stop-color:#F9F9F9"/>
		<stop offset="1" style="stop-color:#FFFFFF"/>
	</linearGradient>
	<polygon fill="url(#XMLID_34_)" stroke="#000000" stroke-width="0.0283" points="-0.03,-12.594 -0.03,-8.993 -10.83,1.807    -10.83,-1.793  "/>
</symbol>
<path fill="none" stroke="#000000" stroke-dasharray="12" d="M324.491,189.13c6.584,0,11.924-5.665,11.924-12.65V49.952  c0-6.988-5.34-12.651-11.924-12.651H211.214c-6.586,0-11.925,5.663-11.925,12.651v126.527c0,6.985,5.339,12.65,11.925,12.65H324.491  z"/>
<path fill="none" stroke="#000000" stroke-dasharray="12" d="M175.551,189.131c9.207,0,16.672-5.632,16.672-12.577V50.774  c0-6.946-7.465-12.577-16.672-12.577H17.172C7.965,38.197,0.5,43.828,0.5,50.774v125.779c0,6.945,7.465,12.577,16.672,12.577  H175.551z"/>
<g>
	<linearGradient id="XMLID_35_" gradientUnits="userSpaceOnUse" x1="303.3457" y1="166.3018" x2="317.1113" y2="166.3018">
		<stop offset="0" style="stop-color:#FFFFFF"/>
		<stop offset="1" style="stop-color:#28903A"/>
	</linearGradient>
	<polygon fill="url(#XMLID_35_)" stroke="#000000" stroke-width="0.0283" points="317.111,177.773 303.346,164.007 303.346,154.83    317.111,168.596  "/>
	<linearGradient id="XMLID_36_" gradientUnits="userSpaceOnUse" x1="317.1113" y1="166.3018" x2="330.8779" y2="166.3018">
		<stop offset="0" style="stop-color:#FFFFFF"/>
		<stop offset="1" style="stop-color:#28903A"/>
	</linearGradient>
	<polygon fill="url(#XMLID_36_)" stroke="#000000" stroke-width="0.0283" points="330.878,154.83 317.111,168.596 317.111,177.773    330.878,164.007  "/>
	<linearGradient id="XMLID_37_" gradientUnits="userSpaceOnUse" x1="303.3457" y1="154.8301" x2="330.8779" y2="154.8301">
		<stop offset="0" style="stop-color:#FFFFFF"/>
		<stop offset="1" style="stop-color:#28903A"/>
	</linearGradient>
	<polygon fill="url(#XMLID_37_)" stroke="#000000" stroke-width="0.0283" points="330.878,154.83 317.111,141.064 303.346,154.83    317.111,168.596  "/>
</g>
<g>
	<linearGradient id="XMLID_38_" gradientUnits="userSpaceOnUse" x1="303.3447" y1="152.5361" x2="317.1104" y2="152.5361">
		<stop offset="0" style="stop-color:#FFFFFF"/>
		<stop offset="1" style="stop-color:#28903A"/>
	</linearGradient>
	<polygon fill="url(#XMLID_38_)" stroke="#000000" stroke-width="0.0283" points="317.11,164.007 303.345,150.242 303.345,141.064    317.11,154.83  "/>
	<linearGradient id="XMLID_39_" gradientUnits="userSpaceOnUse" x1="317.1104" y1="152.5361" x2="330.876" y2="152.5361">
		<stop offset="0" style="stop-color:#FFFFFF"/>
		<stop offset="1" style="stop-color:#28903A"/>
	</linearGradient>
	<polygon fill="url(#XMLID_39_)" stroke="#000000" stroke-width="0.0283" points="330.876,141.064 317.11,154.83 317.11,164.007    330.876,150.242  "/>
	<linearGradient id="XMLID_40_" gradientUnits="userSpaceOnUse" x1="303.3447" y1="141.0654" x2="330.876" y2="141.0654">
		<stop offset="0" style="stop-color:#FFFFFF"/>
		<stop offset="1" style="stop-color:#28903A"/>
	</linearGradient>
	<polygon fill="url(#XMLID_40_)" stroke="#000000" stroke-width="0.0283" points="330.876,141.064 317.11,127.3 303.345,141.064    317.11,154.83  "/>
</g>
<g>
	<linearGradient id="XMLID_41_" gradientUnits="userSpaceOnUse" x1="303.3457" y1="134.1807" x2="317.1113" y2="134.1807">
		<stop offset="0" style="stop-color:#FFFFFF"/>
		<stop offset="1" style="stop-color:#28903A"/>
	</linearGradient>
	<polygon fill="url(#XMLID_41_)" stroke="#000000" stroke-width="0.0283" points="317.111,145.652 303.346,131.888 303.346,122.71    317.111,136.475  "/>
	<linearGradient id="XMLID_42_" gradientUnits="userSpaceOnUse" x1="317.1113" y1="134.1807" x2="330.8779" y2="134.1807">
		<stop offset="0" style="stop-color:#FFFFFF"/>
		<stop offset="1" style="stop-color:#28903A"/>
	</linearGradient>
	<polygon fill="url(#XMLID_42_)" stroke="#000000" stroke-width="0.0283" points="330.878,122.71 317.111,136.475 317.111,145.652    330.878,131.888  "/>
	<linearGradient id="XMLID_43_" gradientUnits="userSpaceOnUse" x1="303.3457" y1="122.71" x2="330.8779" y2="122.71">
		<stop offset="0" style="stop-color:#FFFFFF"/>
		<stop offset="1" style="stop-color:#28903A"/>
	</linearGradient>
	<polygon fill="url(#XMLID_43_)" stroke="#000000" stroke-width="0.0283" points="330.878,122.71 317.111,108.944 303.346,122.71    317.111,136.475  "/>
</g>
<g>
	<linearGradient id="XMLID_44_" gradientUnits="userSpaceOnUse" x1="303.3457" y1="115.8271" x2="317.1113" y2="115.8271">
		<stop offset="0" style="stop-color:#FFFFFF"/>
		<stop offset="1" style="stop-color:#28903A"/>
	</linearGradient>
	<polygon fill="url(#XMLID_44_)" stroke="#000000" stroke-width="0.0283" points="317.111,127.298 303.346,113.532 303.346,104.355    317.111,118.121  "/>
	<linearGradient id="XMLID_45_" gradientUnits="userSpaceOnUse" x1="317.1113" y1="115.8271" x2="330.8779" y2="115.8271">
		<stop offset="0" style="stop-color:#FFFFFF"/>
		<stop offset="1" style="stop-color:#28903A"/>
	</linearGradient>
	<polygon fill="url(#XMLID_45_)" stroke="#000000" stroke-width="0.0283" points="330.878,104.355 317.111,118.121 317.111,127.298    330.878,113.532  "/>
	<linearGradient id="XMLID_46_" gradientUnits="userSpaceOnUse" x1="303.3457" y1="104.3555" x2="330.8779" y2="104.3555">
		<stop offset="0" style="stop-color:#FFFFFF"/>
		<stop offset="1" style="stop-color:#28903A"/>
	</linearGradient>
	<polygon fill="url(#XMLID_46_)" stroke="#000000" stroke-width="0.0283" points="330.878,104.355 317.111,90.59 303.346,104.355    317.111,118.121  "/>
</g>
<line fill="none" stroke="#006E3A" x1="197.809" y1="95.18" x2="257.459" y2="95.18"/>
<line fill="none" stroke="#006E3A" x1="206.985" y1="113.532" x2="257.459" y2="113.532"/>
<path fill="#008EAF" stroke="#008FD4" stroke-width="2" d="M119.421,104.692"/>
<path fill="#008EAF" stroke="#7ACDD0" stroke-width="0.5" d="M74.172,104.692"/>
<path fill="#00ADEF" stroke="#008FD4" stroke-width="2" d="M147.449,132.615"/>
<path fill="#00ADEF" stroke="#008FD4" stroke-width="2" d="M119.538,104.705"/>
<path fill="none" stroke="#008FD4" stroke-width="2" d="M147.335,150.241"/>
<path fill="none" stroke="#008FD4" stroke-width="2" d="M119.803,122.71"/>
<path fill="none" stroke="#008FD4" stroke-width="2" d="M145.294,135.456"/>
<path fill="none" stroke="#008FD4" stroke-width="2" d="M145.294,135.456"/>
<path fill="none" stroke="#00ADEF" stroke-width="0.5" d="M73.917,131.888"/>
<path fill="none" stroke="#008FD4" stroke-width="2" d="M73.917,118.122c0,0,27.532,0,45.886,0  c9.177,9.178,27.532,27.53,27.532,27.53"/>
<path fill="none" stroke="#008FD4" stroke-width="2" d="M73.917,99.768c18.803,0,9.334,0,45.886,0  c9.177,9.177,27.532,27.53,27.532,27.53"/>
<path fill="none" stroke="#008FD4" stroke-width="2" d="M73.917,81.414c18.803,0,9.334,0,45.886,0  c9.177,9.177,27.532,27.53,27.532,27.53"/>
<path fill="none" stroke="#008FD4" stroke-width="2" d="M73.917,136.477c18.803,0,9.334,0,45.886,0  c9.177,9.177,27.532,27.53,27.532,27.53"/>
<line fill="none" stroke="#008FD4" stroke-width="2" x1="147.335" y1="95.18" x2="147.335" y2="177.773"/>
<use xlink:href="#New_Symbol_" width="21.7" height="25.254" x="-10.85" y="-12.627" transform="matrix(2.5492 0 0 -2.5492 46.2578 136.4062)"/>
<use xlink:href="#New_Symbol_" width="21.7" height="25.254" x="-10.85" y="-12.627" transform="matrix(2.5492 0 0 -2.5492 46.2578 118.0508)"/>
<use xlink:href="#New_Symbol_" width="21.7" height="25.254" x="-10.85" y="-12.627" transform="matrix(2.5492 0 0 -2.5492 46.2578 99.834)"/>
<g>
	<g id="XMLID_5_">
		<g>
			<linearGradient id="XMLID_47_" gradientUnits="userSpaceOnUse" x1="46.4624" y1="90.6807" x2="46.4624" y2="35.4907">
				<stop offset="0" style="stop-color:#FFFFFF"/>
				<stop offset="1" style="stop-color:#000000"/>
			</linearGradient>
			<polygon fill="url(#XMLID_47_)" points="74.07,76.993 46.564,104.473 18.854,76.763 46.36,49.283"/>
		</g>
		<g>
			<polygon fill="none" stroke="#000000" stroke-width="0.0283" points="74.07,76.993 46.564,104.473 18.854,76.763 46.36,49.283         "/>
		</g>
	</g>
	<linearGradient id="XMLID_48_" gradientUnits="userSpaceOnUse" x1="46.3848" y1="95.1787" x2="73.916" y2="95.1787">
		<stop offset="0" style="stop-color:#FFFFFF"/>
		<stop offset="1" style="stop-color:#000000"/>
	</linearGradient>
	<polygon fill="url(#XMLID_48_)" stroke="#000000" stroke-width="0.0283" points="46.385,113.532 46.385,104.355 73.916,76.824    73.916,86.001"/>
	<linearGradient id="XMLID_49_" gradientUnits="userSpaceOnUse" x1="18.8535" y1="95.1787" x2="46.3848" y2="95.1787">
		<stop offset="0" style="stop-color:#000000"/>
		<stop offset="0.3597" style="stop-color:#020202"/>
		<stop offset="0.4949" style="stop-color:#090909"/>
		<stop offset="0.5922" style="stop-color:#151515"/>
		<stop offset="0.6714" style="stop-color:#262626"/>
		<stop offset="0.7395" style="stop-color:#3C3C3C"/>
		<stop offset="0.8001" style="stop-color:#585858"/>
		<stop offset="0.855" style="stop-color:#787878"/>
		<stop offset="0.9056" style="stop-color:#9F9F9F"/>
		<stop offset="0.9527" style="stop-color:#CACACA"/>
		<stop offset="0.9947" style="stop-color:#F9F9F9"/>
		<stop offset="1" style="stop-color:#FFFFFF"/>
	</linearGradient>
	<polygon fill="url(#XMLID_49_)" stroke="#000000" stroke-width="0.0283" points="46.385,113.532 46.385,104.355 18.854,76.824    18.854,86.001"/>
</g>
<g>
	<g id="XMLID_1_">
		<g>
			<linearGradient id="XMLID_50_" gradientUnits="userSpaceOnUse" x1="182.7939" y1="126.6494" x2="202.3467" y2="126.6494">
				<stop offset="0" style="stop-color:#FFFFFF"/>
				<stop offset="1" style="stop-color:#0D799B"/>
			</linearGradient>
			<polygon fill="url(#XMLID_50_)" points="202.347,98.124 202.347,134.808 182.998,155.175 182.794,155.175 182.794,155.149      182.794,117.574 202.27,98.124    "/>
			<linearGradient id="XMLID_51_" gradientUnits="userSpaceOnUse" x1="175.248" y1="104.0762" x2="202.2695" y2="104.0762">
				<stop offset="0" style="stop-color:#FFFFFF"/>
				<stop offset="1" style="stop-color:#0D799B"/>
			</linearGradient>
			<polygon fill="url(#XMLID_51_)" points="182.794,117.574 175.248,110.029 194.725,90.579 202.27,98.124    "/>
			<linearGradient id="XMLID_52_" gradientUnits="userSpaceOnUse" x1="175.1211" y1="132.5889" x2="182.7939" y2="132.5889">
				<stop offset="0" style="stop-color:#FFFFFF"/>
				<stop offset="1" style="stop-color:#0D799B"/>
			</linearGradient>
			<polygon fill="url(#XMLID_52_)" points="182.59,155.149 175.146,148.216 175.121,110.131 175.248,110.029 182.794,117.574      182.794,155.149"/>
		</g>
		<g>
			<polygon fill="none" stroke="#000000" stroke-width="0.0283" points="202.27,98.124 182.794,117.574 175.248,110.029      194.725,90.579"/>
			<polyline fill="none" stroke="#000000" stroke-width="0.0283" points="175.121,110.131 175.146,148.216 175.146,148.445    "/>
			<polyline fill="none" stroke="#000000" stroke-width="0.0283" points="182.794,117.243 182.794,117.574 182.794,155.149      182.794,155.175 182.794,155.379"/>
			<polyline fill="none" stroke="#000000" stroke-width="0.0283" points="174.866,147.961 175.146,148.216 182.59,155.149    "/>
			<polyline fill="none" stroke="#000000" stroke-width="0.0283" points="182.998,155.175 202.347,134.808 202.551,134.604    "/>
			<polyline fill="none" stroke="#000000" stroke-width="0.0283" points="202.347,98.099 202.347,98.124 202.347,134.808      202.347,135.394"/>
		</g>
	</g>
</g>
<g>
	<g id="XMLID_3_">
		<g>
			<linearGradient id="XMLID_53_" gradientUnits="userSpaceOnUse" x1="191.8184" y1="135.8262" x2="211.3711" y2="135.8262">
				<stop offset="0" style="stop-color:#FFFFFF"/>
				<stop offset="1" style="stop-color:#0D799B"/>
			</linearGradient>
			<polygon fill="url(#XMLID_53_)" points="211.371,107.3 211.371,143.983 192.022,164.352 191.818,164.352 191.818,164.326      191.818,126.751 211.294,107.3"/>
			<linearGradient id="XMLID_54_" gradientUnits="userSpaceOnUse" x1="184.2725" y1="113.2529" x2="211.2939" y2="113.2529">
				<stop offset="0" style="stop-color:#FFFFFF"/>
				<stop offset="1" style="stop-color:#0D799B"/>
			</linearGradient>
			<polygon fill="url(#XMLID_54_)" points="191.818,126.751 184.272,119.205 203.749,99.754 211.294,107.3    "/>
			<linearGradient id="XMLID_55_" gradientUnits="userSpaceOnUse" x1="184.1455" y1="141.7656" x2="191.8184" y2="141.7656">
				<stop offset="0" style="stop-color:#FFFFFF"/>
				<stop offset="1" style="stop-color:#0D799B"/>
			</linearGradient>
			<polygon fill="url(#XMLID_55_)" points="191.614,164.326 184.171,157.392 184.146,119.307 184.272,119.205 191.818,126.751      191.818,164.326"/>
		</g>
		<g>
		</g>
	</g>
</g>
<line fill="none" stroke="#006E3A" x1="257.459" y1="81.414" x2="257.459" y2="154.83"/>
<path fill="none" stroke="#006E3A" d="M257.459,118.122c0,0,13.766-13.766,22.943-22.942c11.493,0,22.942,0,22.942,0"/>
<path fill="none" stroke="#006E3A" d="M257.459,122.71c0,0,13.766-8.259,22.943-13.766c11.493,0,22.942,0,22.942,0"/>
<path fill="none" stroke="#006E3A" d="M257.459,131.888c0,0,13.766,8.258,22.943,13.765c11.493,0,22.942,0,22.942,0"/>
<path fill="none" stroke="#006E3A" d="M257.459,136.475c0,0,13.766,13.767,22.943,22.943c11.493,0,22.942,0,22.942,0"/>
<line fill="none" stroke="#006E3A" x1="257.459" y1="127.298" x2="303.345" y2="127.298"/>
<g>
	<linearGradient id="XMLID_56_" gradientUnits="userSpaceOnUse" x1="303.3457" y1="102.0615" x2="317.1113" y2="102.0615">
		<stop offset="0" style="stop-color:#FFFFFF"/>
		<stop offset="1" style="stop-color:#28903A"/>
	</linearGradient>
	<polygon fill="url(#XMLID_56_)" stroke="#000000" stroke-width="0.0283" points="317.111,113.532 303.346,99.768 303.346,90.59    317.111,104.355"/>
	<linearGradient id="XMLID_57_" gradientUnits="userSpaceOnUse" x1="317.1113" y1="102.0615" x2="330.8779" y2="102.0615">
		<stop offset="0" style="stop-color:#FFFFFF"/>
		<stop offset="1" style="stop-color:#28903A"/>
	</linearGradient>
	<polygon fill="url(#XMLID_57_)" stroke="#000000" stroke-width="0.0283" points="330.878,90.59 317.111,104.355 317.111,113.532    330.878,99.768"/>
	<linearGradient id="XMLID_58_" gradientUnits="userSpaceOnUse" x1="303.3457" y1="90.5898" x2="330.8779" y2="90.5898">
		<stop offset="0" style="stop-color:#FFFFFF"/>
		<stop offset="1" style="stop-color:#28903A"/>
	</linearGradient>
	<polygon fill="url(#XMLID_58_)" stroke="#000000" stroke-width="0.0283" points="330.878,90.59 317.111,76.824 303.346,90.59    317.111,104.355"/>
</g>
<text transform="matrix(1 0 0 1 82.4873 19.9307)" font-family="'Myriad-Roman'" font-size="23.8119">SAN</text>
<text transform="matrix(1 0 0 1 247.3232 20.3252)" font-family="'Myriad-Roman'" font-size="23.8461">NAS</text>
<text transform="matrix(0.7071 -0.7071 0.7071 0.7071 310.0166 94.1357)"><tspan x="0" y="0" font-family="'Myriad-Roman'" font-size="3.9452">NAS</tspan><tspan x="0" y="4.734" font-family="'Myriad-Roman'" font-size="3.9452">CLIENTS</tspan></text>
<text transform="matrix(0.7071 -0.7071 0.7071 0.7071 33.5508 86.7778)"><tspan x="0" y="0" font-family="'Myriad-Roman'" font-size="6.9283">BLOCK</tspan><tspan x="0" y="8.314" font-family="'Myriad-Roman'" font-size="6.9283">STORAGE</tspan></text>
<text transform="matrix(0.7071 -0.7071 0.7071 0.7071 186.707 113.9326)"><tspan x="0" y="0" font-family="'Myriad-Roman'" font-size="3.6811">NETWORK</tspan><tspan x="0" y="4.417" font-family="'Myriad-Roman'" font-size="3.6811">FILE</tspan><tspan x="-0.001" y="8.835" font-family="'Myriad-Roman'" font-size="3.6811">SERVERS</tspan></text>
<text transform="matrix(1 0 0 1 54.4883 32.5303)" font-family="'Myriad-Roman'" font-size="7.7649">Fibre Channel, iSCSI, or AoE</text>
<text transform="matrix(1 0 0 1 245.9229 31.5244)" font-family="'Myriad-Roman'" font-size="8.1344">SMB, NFS, AFS</text>
<line fill="none" stroke="#008FD4" stroke-width="2" x1="147.335" y1="127.298" x2="179.455" y2="127.298"/>
<line fill="none" stroke="#008FD4" stroke-width="2" x1="147.335" y1="141.064" x2="188.632" y2="141.064"/>
</svg>